<svg xmlns="http://www.w3.org/2000/svg" width="38" height="38"><path fill-rule="evenodd" fill="#484F5B" d="M.75 0h37.094v38H.75V0z"/><path fill-rule="evenodd" fill="#FFF" d="M30.224 23.642c-.151 3.356-1.69 5.226-3.73 6.039-1.5.595-2.965.593-7.208.593-4.136 0-7.032.286-9.158-1.895-2.085-2.139-1.846-4.998-1.846-9.39 0-4.293-.271-7.219 1.846-9.391 1.268-1.3 2.839-1.741 4.621-1.827 2.028-.092 7.047-.097 9.074 0 4.144.197 6.22 2.601 6.401 6.565.091 2.08.095 7.225 0 9.306zm-1.916-4.653c0-3.013-.012-3.371-.064-4.561-.231-5.219-4.068-4.693-8.958-4.693l-.041-.028c-2.943 0-3.287.013-4.456.056-5.088.268-4.568 4.013-4.568 9.211 0 3.843-.28 6.377 1.267 7.955 1.342 1.381 3.182 1.312 7.77 1.312 4.457 0 6.383.126 7.771-1.297 1.365-1.407 1.279-3.305 1.279-7.955zm-3.147-4.67c-.73 0-1.321-.607-1.321-1.354 0-.746.592-1.353 1.321-1.353.727-.001 1.32.607 1.32 1.353 0 .748-.592 1.354-1.32 1.354zm-5.875 10.464c-3.12 0-5.651-2.592-5.651-5.794 0-3.2 2.528-5.795 5.651-5.795 3.12 0 5.651 2.592 5.651 5.795 0 3.199-2.529 5.794-5.651 5.794zm0-9.556c-2.027 0-3.668 1.683-3.668 3.762 0 2.077 1.641 3.761 3.668 3.761s3.668-1.684 3.668-3.761c0-2.079-1.641-3.762-3.668-3.762z"/></svg>