<svg xmlns="http://www.w3.org/2000/svg" width="38" height="38"><path fill-rule="evenodd" fill="#484F5B" d="M.937 0H38v38H.937V0z"/><path fill-rule="evenodd" fill="#FFF" d="M28.689 14.582a9.343 9.343 0 002.319-2.453v-.001a9.448 9.448 0 01-2.666.746 4.685 4.685 0 002.036-2.611 9.142 9.142 0 01-2.934 1.144 4.588 4.588 0 00-3.379-1.495c-2.562 0-4.624 2.123-4.624 4.726 0 .374.031.734.107 1.077-3.846-.192-7.25-2.074-9.537-4.943a4.84 4.84 0 00-.634 2.389c0 1.636.825 3.086 2.056 3.926a4.495 4.495 0 01-2.091-.582v.052c0 2.296 1.604 4.203 3.707 4.643a4.495 4.495 0 01-1.213.156c-.296 0-.595-.018-.875-.08.599 1.87 2.301 3.246 4.323 3.291a9.182 9.182 0 01-5.737 2.015c-.379 0-.743-.018-1.107-.065a12.827 12.827 0 007.098 2.12c8.164 0 13.486-6.955 13.151-14.055z"/></svg>