<?xml version="1.0" standalone="no"?>
<!DOCTYPE svg PUBLIC "-//W3C//DTD SVG 20010904//EN"
 "http://www.w3.org/TR/2001/REC-SVG-20010904/DTD/svg10.dtd">
<svg version="1.0" xmlns="http://www.w3.org/2000/svg"
 width="217.000000pt" height="217.000000pt" viewBox="0 0 217.000000 217.000000"
 preserveAspectRatio="xMidYMid meet">
<metadata>
Created by potrace 1.14, written by Peter Selinger 2001-2017
</metadata>
<g transform="translate(0.000000,217.000000) scale(0.100000,-0.100000)"
fill="#000000" stroke="none">
<path d="M1144 2142 c-4 -18 -11 -35 -15 -38 -5 -3 -6 -16 -3 -29 6 -25 -19
-116 -42 -149 -21 -31 -63 -53 -90 -48 -19 3 -23 9 -18 21 4 9 8 36 8 61 l1
45 -87 -1 c-48 0 -90 -2 -92 -5 -2 -2 -7 -23 -11 -46 -6 -40 -5 -43 17 -43 22
-1 22 -1 -5 -16 -21 -11 -27 -21 -24 -35 3 -10 1 -19 -4 -19 -5 0 -11 -11 -15
-25 -4 -16 -17 -28 -39 -35 -18 -6 -52 -24 -76 -40 -24 -15 -55 -30 -69 -32
-22 -3 -26 2 -34 40 -8 39 -19 48 -50 43 -21 -4 -45 12 -43 29 1 10 5 16 10
13 12 -7 57 6 57 17 0 6 -12 10 -28 10 -34 0 -62 37 -36 47 9 3 14 13 11 24
-4 14 2 21 19 25 19 5 22 9 14 19 -6 8 -20 12 -31 10 -24 -5 -59 31 -59 61 0
23 -24 39 -42 28 -5 -3 -8 -15 -5 -25 3 -11 1 -17 -4 -14 -4 3 -11 -7 -15 -22
-3 -15 -10 -41 -15 -57 -5 -15 -6 -32 -3 -37 3 -5 1 -9 -3 -9 -5 0 -13 -15
-19 -32 -5 -18 -15 -32 -22 -31 -15 4 -16 -9 -1 -24 6 -6 13 -27 16 -46 4 -33
2 -36 -31 -48 -37 -14 -45 -24 -23 -32 7 -3 6 -6 -5 -6 -15 -1 -15 -4 -3 -27
12 -23 11 -28 -6 -45 -23 -23 -24 -33 -4 -49 11 -9 12 -15 5 -20 -15 -9 -2
-38 21 -45 25 -8 24 -25 -1 -25 -11 0 -20 -5 -20 -10 0 -6 9 -18 20 -27 11
-10 20 -23 20 -29 0 -6 7 -17 15 -24 8 -7 15 -26 15 -42 0 -25 2 -27 19 -19
14 8 22 7 30 -3 9 -11 7 -15 -10 -19 -14 -4 -20 -11 -16 -21 3 -8 -1 -20 -8
-26 -18 -15 -10 -30 16 -30 11 0 17 -5 14 -10 -3 -6 4 -14 17 -19 13 -6 17
-10 10 -10 -9 -1 -12 -11 -8 -31 3 -20 -1 -33 -11 -39 -19 -10 -7 -35 13 -27
10 4 21 -8 34 -37 10 -23 19 -37 20 -32 1 14 50 -84 50 -101 0 -8 5 -14 11
-14 8 0 8 -5 -1 -15 -9 -11 -10 -15 -1 -15 13 0 41 -24 41 -36 0 -4 8 -12 17
-19 16 -12 16 -14 0 -38 -16 -25 -16 -26 4 -22 30 6 51 -20 56 -68 2 -22 7
-43 12 -47 5 -3 21 -32 37 -64 18 -39 39 -65 60 -78 18 -10 35 -25 38 -33 3
-8 12 -15 19 -15 8 0 21 -7 28 -17 13 -14 11 -16 -11 -10 -14 3 -70 22 -125
41 -77 28 -116 36 -168 36 -62 0 -71 -3 -98 -29 -16 -16 -29 -39 -29 -51 0
-37 37 -93 102 -157 82 -79 170 -135 264 -167 57 -19 85 -35 115 -66 l40 -41
102 5 c138 7 223 7 345 0 l102 -6 43 42 c39 39 119 76 138 64 10 -6 171 103
231 156 26 22 60 61 77 87 31 47 31 47 30 180 0 73 -5 134 -10 134 -14 2 -22
4 -48 13 -16 6 -26 4 -32 -5 -5 -9 -9 -10 -9 -2 0 6 -13 16 -30 22 -16 5 -30
14 -30 19 0 13 -117 45 -132 36 -7 -4 -8 -3 -4 4 4 7 1 12 -8 12 -9 0 -16 5
-16 10 0 6 -9 10 -19 10 -11 0 -28 11 -39 25 -11 14 -25 25 -30 25 -6 0 -15 6
-19 14 -4 7 -23 21 -40 30 -21 10 -33 24 -33 36 0 11 -7 20 -15 20 -12 0 -13
5 -7 18 5 9 12 41 16 71 15 112 62 260 124 384 49 100 123 304 116 322 -3 6
-17 18 -32 27 -30 18 -325 118 -347 118 -20 0 -74 48 -91 81 -20 39 -22 120
-5 152 15 29 7 51 -10 27 -7 -10 -12 -11 -15 -4 -3 6 -11 20 -19 30 -13 18
-14 17 -21 -14z m38 -282 c12 -11 42 -27 67 -36 116 -42 181 -80 290 -171 8
-6 -22 -82 -48 -121 -39 -60 -191 -222 -207 -222 -8 0 -23 14 -34 32 l-19 31
27 36 c45 60 56 87 76 180 6 31 -28 116 -61 152 -50 54 -114 68 -177 40 -26
-11 -49 -27 -52 -35 -13 -33 -32 -25 -32 15 -1 29 4 42 16 46 48 17 100 44
112 58 16 19 17 19 42 -5z m438 -1124 c0 -2 -8 -10 -17 -17 -16 -13 -17 -12
-4 4 13 16 21 21 21 13z m-730 -124 c0 -5 -7 -9 -15 -9 -8 0 -12 4 -9 9 3 4 9
8 15 8 5 0 9 -4 9 -8z"/>
<path d="M376 2105 c-6 -16 5 -18 41 -9 13 4 20 10 17 15 -9 15 -51 10 -58 -6z"/>
<path d="M620 1812 c0 -10 22 -32 32 -32 4 0 8 9 8 20 0 13 -7 20 -20 20 -11
0 -20 -4 -20 -8z"/>
</g>
</svg>
