<svg 
 xmlns="http://www.w3.org/2000/svg"
 xmlns:xlink="http://www.w3.org/1999/xlink"
 width="38px" height="38px">
<path fill-rule="evenodd"  fill="rgb(72, 79, 91)"
 d="M0.750,-0.000 L37.844,-0.000 L37.844,38.000 L0.750,38.000 L0.750,-0.000 Z"/>
<path fill-rule="evenodd"  fill="rgb(255, 255, 255)"
 d="M30.224,23.642 C30.073,26.998 28.534,28.868 26.494,29.681 C24.994,30.276 23.529,30.274 19.286,30.274 C15.150,30.274 12.254,30.560 10.128,28.379 C8.043,26.240 8.282,23.381 8.282,18.989 C8.282,14.696 8.011,11.770 10.128,9.598 C11.396,8.298 12.967,7.857 14.749,7.771 C16.777,7.679 21.796,7.674 23.823,7.771 C27.967,7.968 30.043,10.372 30.224,14.336 C30.315,16.416 30.319,21.561 30.224,23.642 ZM28.308,18.989 C28.308,15.976 28.296,15.618 28.244,14.428 C28.013,9.209 24.176,9.735 19.286,9.735 L19.245,9.707 C16.302,9.707 15.958,9.720 14.789,9.763 C9.701,10.031 10.221,13.776 10.221,18.974 C10.221,22.817 9.941,25.351 11.488,26.929 C12.830,28.310 14.670,28.241 19.258,28.241 C23.715,28.241 25.641,28.367 27.029,26.944 C28.394,25.537 28.308,23.639 28.308,18.989 ZM25.161,14.319 C24.431,14.319 23.840,13.712 23.840,12.965 C23.840,12.219 24.432,11.612 25.161,11.612 C25.888,11.611 26.481,12.219 26.481,12.965 C26.481,13.713 25.889,14.319 25.161,14.319 ZM19.286,24.783 C16.166,24.783 13.635,22.191 13.635,18.989 C13.635,15.789 16.163,13.194 19.286,13.194 C22.406,13.194 24.937,15.786 24.937,18.989 C24.937,22.188 22.408,24.783 19.286,24.783 ZM19.286,15.227 C17.259,15.227 15.618,16.910 15.618,18.989 C15.618,21.066 17.259,22.750 19.286,22.750 C21.313,22.750 22.954,21.066 22.954,18.989 C22.954,16.910 21.313,15.227 19.286,15.227 Z"/>
</svg>