<svg 
 xmlns="http://www.w3.org/2000/svg"
 xmlns:xlink="http://www.w3.org/1999/xlink"
 width="38px" height="38px">
<path fill-rule="evenodd"  fill="rgb(72, 79, 91)"
 d="M0.937,-0.000 L38.000,-0.000 L38.000,38.000 L0.937,38.000 L0.937,-0.000 Z"/>
<path fill-rule="evenodd"  fill="rgb(255, 255, 255)"
 d="M28.689,14.582 C29.607,13.916 30.379,13.086 31.008,12.129 L31.008,12.128 C30.169,12.504 29.275,12.754 28.342,12.874 C29.301,12.289 30.034,11.370 30.378,10.263 C29.484,10.807 28.497,11.192 27.444,11.407 C26.595,10.483 25.385,9.912 24.065,9.912 C21.503,9.912 19.441,12.035 19.441,14.638 C19.441,15.012 19.472,15.372 19.548,15.715 C15.702,15.523 12.298,13.641 10.011,10.772 C9.612,11.480 9.377,12.289 9.377,13.161 C9.377,14.797 10.202,16.247 11.433,17.087 C10.689,17.073 9.960,16.852 9.342,16.505 C9.342,16.519 9.342,16.538 9.342,16.557 C9.342,18.853 10.946,20.760 13.049,21.200 C12.672,21.306 12.262,21.356 11.836,21.356 C11.540,21.356 11.241,21.338 10.961,21.276 C11.560,23.146 13.262,24.522 15.284,24.567 C13.709,25.824 11.710,26.582 9.547,26.582 C9.168,26.582 8.804,26.564 8.440,26.517 C10.490,27.867 12.918,28.637 15.538,28.637 C23.702,28.637 29.024,21.682 28.689,14.582 Z"/>
</svg>