<?xml version="1.0" encoding="iso-8859-1"?><!DOCTYPE svg PUBLIC "-//W3C//DTD SVG 1.1//EN" "http://www.w3.org/Graphics/SVG/1.1/DTD/svg11.dtd"><svg viewBox="0 0 426.67 426.67" xmlns="http://www.w3.org/2000/svg" xmlns:xlink="http://www.w3.org/1999/xlink"><style>:root>svg{display:none}:root>svg:target{display:block}</style><svg viewBox="0 0 284.929 284.929" id="arrow-down" xmlns="http://www.w3.org/2000/svg"><path d="M135.899 167.877c1.902 1.902 4.093 2.851 6.567 2.851s4.661-.948 6.562-2.851L282.082 34.829c1.902-1.903 2.847-4.093 2.847-6.567s-.951-4.665-2.847-6.567L267.808 7.417c-1.902-1.903-4.093-2.853-6.57-2.853-2.471 0-4.661.95-6.563 2.853L142.466 119.622 30.262 7.417c-1.903-1.903-4.093-2.853-6.567-2.853-2.475 0-4.665.95-6.567 2.853L2.856 21.695C.95 23.597 0 25.784 0 28.262c0 2.478.953 4.665 2.856 6.567l133.043 133.048z"/><path d="M267.808 117.053c-1.902-1.903-4.093-2.853-6.57-2.853-2.471 0-4.661.95-6.563 2.853L142.466 229.257 30.262 117.05c-1.903-1.903-4.093-2.853-6.567-2.853-2.475 0-4.665.95-6.567 2.853L2.856 131.327C.95 133.23 0 135.42 0 137.893c0 2.474.953 4.665 2.856 6.57l133.043 133.046c1.902 1.903 4.093 2.854 6.567 2.854s4.661-.951 6.562-2.854l133.054-133.046c1.902-1.903 2.847-4.093 2.847-6.565 0-2.474-.951-4.661-2.847-6.567l-14.274-14.278z"/></svg><svg viewBox="0 0 38 38" id="facebook" xmlns="http://www.w3.org/2000/svg"><path fill-rule="evenodd" fill="#484F5B" d="M0 0h37.062v38H0V0z"/><path fill-rule="evenodd" fill="#FFF" d="M21.789 11.827h1.864V8.411c-.321-.046-1.427-.15-2.715-.15-2.688 0-4.529 1.778-4.529 5.046v3.008h-2.966v3.817h2.966v9.606l3.636.001v-9.606h2.847l.452-3.818h-3.299v-2.63c0-1.103.282-1.858 1.744-1.858z"/></svg><svg viewBox="0 0 38 38" id="instagram" xmlns="http://www.w3.org/2000/svg"><path fill-rule="evenodd" fill="#484F5B" d="M.75 0h37.094v38H.75V0z"/><path fill-rule="evenodd" fill="#FFF" d="M30.224 23.642c-.151 3.356-1.69 5.226-3.73 6.039-1.5.595-2.965.593-7.208.593-4.136 0-7.032.286-9.158-1.895-2.085-2.139-1.846-4.998-1.846-9.39 0-4.293-.271-7.219 1.846-9.391 1.268-1.3 2.839-1.741 4.621-1.827 2.028-.092 7.047-.097 9.074 0 4.144.197 6.22 2.601 6.401 6.565.091 2.08.095 7.225 0 9.306zm-1.916-4.653c0-3.013-.012-3.371-.064-4.561-.231-5.219-4.068-4.693-8.958-4.693l-.041-.028c-2.943 0-3.287.013-4.456.056-5.088.268-4.568 4.013-4.568 9.211 0 3.843-.28 6.377 1.267 7.955 1.342 1.381 3.182 1.312 7.77 1.312 4.457 0 6.383.126 7.771-1.297 1.365-1.407 1.279-3.305 1.279-7.955zm-3.147-4.67c-.73 0-1.321-.607-1.321-1.354 0-.746.592-1.353 1.321-1.353.727-.001 1.32.607 1.32 1.353 0 .748-.592 1.354-1.32 1.354zm-5.875 10.464c-3.12 0-5.651-2.592-5.651-5.794 0-3.2 2.528-5.795 5.651-5.795 3.12 0 5.651 2.592 5.651 5.795 0 3.199-2.529 5.794-5.651 5.794zm0-9.556c-2.027 0-3.668 1.683-3.668 3.762 0 2.077 1.641 3.761 3.668 3.761s3.668-1.684 3.668-3.761c0-2.079-1.641-3.762-3.668-3.762z"/></svg><svg viewBox="0 0 426.667 426.667" id="play-arrow" xmlns="http://www.w3.org/2000/svg"><path d="M213.333 0C95.467 0 0 95.467 0 213.333s95.467 213.333 213.333 213.333S426.667 331.2 426.667 213.333 331.2 0 213.333 0zm-42.666 309.333v-192l128 96-128 96z"/></svg><svg viewBox="0 0 38 38" id="twitter" xmlns="http://www.w3.org/2000/svg"><path fill-rule="evenodd" fill="#484F5B" d="M.937 0H38v38H.937V0z"/><path fill-rule="evenodd" fill="#FFF" d="M28.689 14.582a9.343 9.343 0 002.319-2.453v-.001a9.448 9.448 0 01-2.666.746 4.685 4.685 0 002.036-2.611 9.142 9.142 0 01-2.934 1.144 4.588 4.588 0 00-3.379-1.495c-2.562 0-4.624 2.123-4.624 4.726 0 .374.031.734.107 1.077-3.846-.192-7.25-2.074-9.537-4.943a4.84 4.84 0 00-.634 2.389c0 1.636.825 3.086 2.056 3.926a4.495 4.495 0 01-2.091-.582v.052c0 2.296 1.604 4.203 3.707 4.643a4.495 4.495 0 01-1.213.156c-.296 0-.595-.018-.875-.08.599 1.87 2.301 3.246 4.323 3.291a9.182 9.182 0 01-5.737 2.015c-.379 0-.743-.018-1.107-.065a12.827 12.827 0 007.098 2.12c8.164 0 13.486-6.955 13.151-14.055z"/></svg></svg>