<?xml version="1.0" encoding="iso-8859-1"?><!DOCTYPE svg PUBLIC "-//W3C//DTD SVG 1.1//EN" "http://www.w3.org/Graphics/SVG/1.1/DTD/svg11.dtd"><svg viewBox="0 0 455 455" xmlns="http://www.w3.org/2000/svg" xmlns:xlink="http://www.w3.org/1999/xlink"><style>:root>svg{display:none}:root>svg:target{display:block}</style><svg viewBox="0 0 284.929 284.929" id="arrow-down" xmlns="http://www.w3.org/2000/svg"><path d="M135.899 167.877c1.902 1.902 4.093 2.851 6.567 2.851s4.661-.948 6.562-2.851L282.082 34.829c1.902-1.903 2.847-4.093 2.847-6.567s-.951-4.665-2.847-6.567L267.808 7.417c-1.902-1.903-4.093-2.853-6.57-2.853-2.471 0-4.661.95-6.563 2.853L142.466 119.622 30.262 7.417c-1.903-1.903-4.093-2.853-6.567-2.853-2.475 0-4.665.95-6.567 2.853L2.856 21.695C.95 23.597 0 25.784 0 28.262c0 2.478.953 4.665 2.856 6.567l133.043 133.048z"/><path d="M267.808 117.053c-1.902-1.903-4.093-2.853-6.57-2.853-2.471 0-4.661.95-6.563 2.853L142.466 229.257 30.262 117.05c-1.903-1.903-4.093-2.853-6.567-2.853-2.475 0-4.665.95-6.567 2.853L2.856 131.327C.95 133.23 0 135.42 0 137.893c0 2.474.953 4.665 2.856 6.57l133.043 133.046c1.902 1.903 4.093 2.854 6.567 2.854s4.661-.951 6.562-2.854l133.054-133.046c1.902-1.903 2.847-4.093 2.847-6.565 0-2.474-.951-4.661-2.847-6.567l-14.274-14.278z"/></svg><svg viewBox="0 0 455 455" id="facebook" xmlns="http://www.w3.org/2000/svg"><path d="M0 0v455h455V0H0zm301.004 125.217H265.44c-7.044 0-14.153 7.28-14.153 12.696v36.264h49.647c-1.999 27.807-6.103 53.235-6.103 53.235h-43.798V385h-65.266V227.395h-31.771v-53.029h31.771V131.01c0-7.928-1.606-61.009 66.872-61.009h48.366v55.216z" fill-rule="evenodd" clip-rule="evenodd"/></svg><svg viewBox="0 0 364 364" id="instagram" xmlns="http://www.w3.org/2000/svg"><g fill-rule="evenodd" clip-rule="evenodd"><path d="M244.424 83.438H119.577c-19.925 0-36.139 16.213-36.139 36.139v124.846c0 19.929 16.214 36.143 36.139 36.143h124.847c19.928 0 36.142-16.214 36.142-36.143V119.577c0-19.925-16.214-36.139-36.142-36.139zm-62.426 163.456c-35.779 0-64.892-29.113-64.892-64.896 0-35.779 29.113-64.892 64.892-64.892 35.783 0 64.896 29.113 64.896 64.892 0 35.783-29.113 64.896-64.896 64.896zm66.984-116.369c-8.471 0-15.359-6.888-15.359-15.354 0-8.467 6.888-15.355 15.359-15.355 8.466 0 15.354 6.888 15.354 15.355s-6.888 15.354-15.354 15.354z"/><path d="M181.998 144.531c-20.655 0-37.475 16.812-37.475 37.467 0 20.663 16.82 37.479 37.475 37.479 20.663 0 37.471-16.816 37.471-37.479 0-20.655-16.808-37.467-37.471-37.467z"/><path d="M0 0v364h364V0H0zm307.984 244.423c0 35.053-28.508 63.561-63.56 63.561H119.577c-35.049 0-63.561-28.508-63.561-63.561V119.577c0-35.049 28.512-63.561 63.561-63.561h124.847c35.052 0 63.56 28.512 63.56 63.561v124.846z"/></g></svg><svg viewBox="0 0 426.667 426.667" id="play-arrow" xmlns="http://www.w3.org/2000/svg"><path d="M213.333 0C95.467 0 0 95.467 0 213.333s95.467 213.333 213.333 213.333S426.667 331.2 426.667 213.333 331.2 0 213.333 0zm-42.666 309.333v-192l128 96-128 96z"/></svg><svg viewBox="0 0 455 455" id="twitter" xmlns="http://www.w3.org/2000/svg"><path d="M0 0v455h455V0H0zm352.751 163.259c.123 2.773.186 5.561.186 8.36 0 85.403-65.002 183.876-183.873 183.876-36.496 0-70.466-10.697-99.065-29.037 5.056.601 10.199.907 15.417.907 30.278 0 58.143-10.331 80.262-27.668-28.28-.519-52.148-19.204-60.373-44.88a64.403 64.403 0 0012.161 1.163c5.894 0 11.604-.794 17.027-2.268-29.563-5.939-51.841-32.057-51.841-63.368 0-.273 0-.544.006-.814a64.366 64.366 0 0029.271 8.084c-17.342-11.589-28.748-31.371-28.748-53.79 0-11.845 3.187-22.945 8.751-32.492 31.873 39.101 79.493 64.828 133.203 67.526a64.831 64.831 0 01-1.677-14.729c0-35.688 28.938-64.623 64.626-64.623 18.589 0 35.385 7.847 47.173 20.406a129.352 129.352 0 0041.038-15.681c-4.824 15.092-15.071 27.754-28.415 35.754 13.074-1.563 25.528-5.038 37.118-10.178-8.662 12.959-19.618 24.342-32.247 33.452z" fill-rule="evenodd" clip-rule="evenodd"/></svg></svg>